<svg id="ei5EfONRcqC1" xmlns="http://www.w3.org/2000/svg" xmlns:xlink="http://www.w3.org/1999/xlink" viewBox="0 0 448 512" shape-rendering="geometricPrecision" text-rendering="geometricPrecision"><path d="M224,256c70.692448,0,128-57.307552,128-128s-57.307552-128-128-128-128,57.307552-128,128s57.307552,128,128,128Zm-45.7,48C79.8,304,0,383.8,0,482.3C0,498.7,13.3,512,29.7,512h388.6c16.4,0,29.7-13.3,29.7-29.7C448,383.8,368.2,304,269.7,304h-91.4Z" transform="matrix(.761218 0 0 0.741655 0 132.27264)"/><rect width="41.613933" height="169.428156" rx="9" ry="9" transform="translate(320.218698 28.43106)" stroke-width="0"/><rect width="196.179971" height="40.127502" rx="9" ry="9" transform="translate(242.935679 93.081387)" stroke-width="0"/></svg>
