<svg id="eJNLAWTlGID1" xmlns="http://www.w3.org/2000/svg" xmlns:xlink="http://www.w3.org/1999/xlink" viewBox="0 0 448 512" shape-rendering="geometricPrecision" text-rendering="geometricPrecision"><path d="M96,0C43,0,0,43,0,96v320c0,53,43,96,96,96h288h32c17.7,0,32-14.3,32-32s-14.3-32-32-32v-64c17.7,0,32-14.3,32-32v-320c0-17.7-14.3-32-32-32h-32-288Zm0,384h256v64h-256c-17.7,0-32-14.3-32-32s14.3-32,32-32Zm32-240c0-8.8,7.2-16,16-16h192c8.8,0,16,7.2,16,16s-7.2,16-16,16h-192c-8.8,0-16-7.2-16-16Zm16,48h192c8.8,0,16,7.2,16,16s-7.2,16-16,16h-192c-8.8,0-16-7.2-16-16s7.2-16,16-16Z" transform="matrix(.673438 0 0 0.683604 0 110.721614)"/><rect width="166.455733" height="28.238026" rx="9" ry="9" transform="translate(281.544267 80.998549)" stroke-width="0"/><rect width="34.182874" height="145.648766" rx="9" ry="9" transform="translate(354.043543 22.293179)" stroke-width="0"/></svg>
